<svg width="175" height="40" viewBox="0 0 175 40" fill="none" xmlns="http://www.w3.org/2000/svg">
<g clip-path="url(#clip0_10098_134919)">
<path d="M22.3435 18.9014L27.8344 12.1226C28.3429 11.4943 29.1056 11.1328 29.9106 11.1328H42.7418C44.0204 11.1328 45.2168 10.5619 46.0243 9.5671L53.0456 0.898438H37.7893C36.5106 0.898438 35.3143 1.46937 34.5067 2.46413L29.0158 9.24299C28.5074 9.87126 27.7447 10.2353 26.9371 10.2353H14.106C12.8274 10.2353 11.631 10.8062 10.8234 11.8034L3.80469 20.4671H19.061C20.3396 20.4671 21.536 19.8962 22.3435 18.8989V18.9014Z" fill="#D40000"/>
<path d="M30.6995 19.7504L25.2087 26.5292C24.7002 27.1575 23.9375 27.519 23.1324 27.519H10.3013C9.02267 27.519 7.8263 28.0899 7.01874 29.0847L0 37.7509H15.2563C16.5349 37.7509 17.7313 37.1799 18.5389 36.1827L24.0297 29.4038C24.5382 28.7755 25.3009 28.4115 26.1084 28.4115H38.9396C40.2182 28.4115 41.4146 27.8406 42.2221 26.8434L49.2409 18.1797H33.9846C32.7109 18.1797 31.5046 18.7531 30.702 19.7479L30.6995 19.7504Z" fill="#D40000"/>
<path d="M69.338 10.017C70.7014 10.3012 71.8005 10.5829 72.633 10.8672C73.4655 11.1514 74.2282 11.5129 74.9186 11.9567C75.609 12.383 76.0975 12.914 76.3792 13.5523C76.6807 14.1905 76.8303 14.9609 76.8303 15.8659C76.8303 16.8931 76.6085 17.8056 76.1648 18.6034C75.7411 19.3837 75.1653 19.9846 74.4375 20.4109C73.7297 20.8372 72.977 21.1564 72.1794 21.3683C71.3992 21.5802 70.5942 21.6874 69.7617 21.6874C67.2269 21.6874 65.2977 21.094 63.9692 19.9073C62.6582 18.7031 61.888 17.1972 61.6562 15.3897H65.4822C65.7489 16.3471 66.2 17.0477 66.8381 17.4889C67.4936 17.9327 68.4581 18.1546 69.7343 18.1546C70.7961 18.1546 71.6036 17.9676 72.152 17.5961C72.7177 17.2247 73.0019 16.7011 73.0019 16.028C73.0019 15.6016 72.8424 15.2651 72.5233 15.0182C72.2217 14.7515 71.8504 14.557 71.4067 14.4323C70.9631 14.3077 70.1754 14.1232 69.0414 13.8739C68.9541 13.8564 68.8819 13.8465 68.8295 13.8465C68.7946 13.829 68.7323 13.8116 68.6426 13.7941C68.5728 13.7767 68.5005 13.7592 68.4307 13.7417C67.4736 13.5473 66.6686 13.3354 66.0131 13.1035C65.3575 12.8741 64.712 12.555 64.0739 12.1461C63.4359 11.7398 62.9498 11.2162 62.6134 10.5779C62.2943 9.9397 62.1348 9.1768 62.1348 8.29174C62.1348 6.4493 62.8252 5.01325 64.2085 3.98608C65.5918 2.9589 67.2368 2.44531 69.151 2.44531C71.489 2.44531 73.2611 2.98632 74.465 4.06586C75.6863 5.12794 76.4141 6.51163 76.6434 8.21195H72.79C72.3289 6.72355 71.1251 5.9781 69.176 5.9781C68.0943 5.9781 67.2892 6.18254 66.7583 6.58892C66.2274 6.97785 65.9607 7.49144 65.9607 8.12968C65.9607 8.64327 66.1825 9.01475 66.6262 9.24661C67.0873 9.47598 67.9896 9.73277 69.338 10.017Z" fill="#000D20"/>
<path d="M80.8855 8.6087C82.356 7.15519 84.1531 6.42969 86.2792 6.42969C88.4052 6.42969 90.2023 7.15519 91.6728 8.6087C93.1608 10.0622 93.9061 11.8772 93.9061 14.0587C93.9061 16.2402 93.1708 18.0801 91.7003 19.5337C90.2472 20.9697 88.4401 21.6877 86.2792 21.6877C84.1182 21.6877 82.3286 20.9622 80.8581 19.5087C79.405 18.0552 78.6797 16.2402 78.6797 14.0587C78.6797 11.8772 79.415 10.0622 80.8855 8.6087ZM88.9635 11.1617C88.2557 10.4162 87.3609 10.0447 86.2792 10.0447C85.1974 10.0447 84.2952 10.4162 83.5674 11.1617C82.8595 11.9071 82.5031 12.872 82.5031 14.0587C82.5031 15.2454 82.857 16.2128 83.5674 16.9557C84.2927 17.7012 85.1974 18.0727 86.2792 18.0727C87.3609 18.0727 88.2532 17.7012 88.9635 16.9557C89.6913 16.2103 90.0527 15.2454 90.0527 14.0587C90.0527 12.872 89.6888 11.9046 88.9635 11.1617Z" fill="#000D20"/>
<path d="M95.9453 21.3671V0.898438H99.7463V21.3671H95.9453Z" fill="#000D20"/>
<path d="M104.686 0C105.376 0 105.944 0.211917 106.386 0.638245C106.829 1.04463 107.051 1.57816 107.051 2.23386C107.051 2.88955 106.829 3.43057 106.386 3.8544C105.942 4.28073 105.376 4.49265 104.686 4.49265C103.995 4.49265 103.444 4.28073 102.986 3.8544C102.542 3.42807 102.32 2.88955 102.32 2.23386C102.32 1.57816 102.542 1.06457 102.986 0.638245C103.447 0.211917 104.013 0 104.686 0ZM102.771 21.3712V6.75143H106.572V21.3712H102.771Z" fill="#000D20"/>
<path d="M120.761 0.898438H124.562V21.3671H120.761V19.4001C119.644 20.9234 118.111 21.6863 116.162 21.6863C114.213 21.6863 112.655 20.9782 111.379 19.5596C110.12 18.1236 109.492 16.2911 109.492 14.0573C109.492 11.8234 110.12 9.99841 111.379 8.58231C112.655 7.14626 114.24 6.42823 116.135 6.42823C118.029 6.42823 119.624 7.21606 120.758 8.79422V0.898438H120.761ZM117.014 18.0712C118.094 18.0712 118.988 17.6997 119.699 16.9543C120.407 16.2088 120.761 15.244 120.761 14.0573C120.761 12.8705 120.407 11.9032 119.699 11.1602C118.991 10.4148 118.096 10.0433 117.014 10.0433C115.933 10.0433 115.048 10.4148 114.357 11.1602C113.667 11.9057 113.321 12.8705 113.321 14.0573C113.321 15.244 113.667 16.2113 114.357 16.9543C115.065 17.6997 115.953 18.0712 117.014 18.0712Z" fill="#000D20"/>
<path d="M134.757 10.017C136.121 10.3012 137.22 10.5829 138.052 10.8672C138.885 11.1514 139.648 11.5129 140.338 11.9567C141.028 12.383 141.517 12.914 141.799 13.5523C142.1 14.1905 142.25 14.9609 142.25 15.8659C142.25 16.8931 142.028 17.8056 141.587 18.6034C141.16 19.3837 140.585 19.9846 139.859 20.4109C139.152 20.8372 138.399 21.1564 137.601 21.3683C136.821 21.5802 136.016 21.6874 135.184 21.6874C132.651 21.6874 130.72 21.094 129.391 19.9073C128.08 18.7031 127.31 17.1972 127.078 15.3897H130.904C131.171 16.3471 131.622 17.0477 132.26 17.4889C132.915 17.9327 133.88 18.1546 135.156 18.1546C136.22 18.1546 137.026 17.9676 137.574 17.5961C138.14 17.2247 138.424 16.7011 138.424 16.028C138.424 15.6016 138.264 15.2651 137.945 15.0182C137.644 14.7515 137.272 14.557 136.829 14.4323C136.385 14.3077 135.597 14.1232 134.463 13.8739C134.376 13.8564 134.304 13.8465 134.251 13.8465C134.217 13.829 134.154 13.8116 134.064 13.7941C133.995 13.7767 133.922 13.7592 133.853 13.7417C132.896 13.5473 132.09 13.3354 131.435 13.1035C130.779 12.8716 130.131 12.555 129.496 12.1461C128.858 11.7398 128.372 11.2162 128.035 10.5779C127.716 9.9397 127.557 9.1768 127.557 8.29174C127.557 6.4493 128.247 5.01325 129.63 3.98608C131.011 2.9589 132.659 2.44531 134.573 2.44531C136.911 2.44531 138.683 2.98632 139.887 4.06586C141.108 5.12794 141.836 6.51163 142.065 8.21195H138.212C137.751 6.72355 136.547 5.9781 134.598 5.9781C133.516 5.9781 132.711 6.18254 132.18 6.58892C131.649 6.97785 131.383 7.49144 131.383 8.12968C131.383 8.64327 131.604 9.01475 132.048 9.24661C132.509 9.47598 133.411 9.73277 134.76 10.017H134.757Z" fill="#000D20"/>
<path d="M154.559 6.75H158.36V21.3698H154.559V19.3503C153.442 20.9086 151.937 21.6889 150.043 21.6889C148.43 21.6889 147.154 21.1753 146.217 20.1482C145.295 19.1035 144.836 17.6949 144.836 15.9223V6.75H148.637V15.097C148.637 16.0893 148.841 16.8348 149.248 17.3309C149.674 17.827 150.364 18.0764 151.321 18.0764C152.366 18.0764 153.163 17.7672 153.714 17.1464C154.282 16.5256 154.564 15.6231 154.564 14.4339V6.75249L154.559 6.75Z" fill="#000D20"/>
<path d="M169.712 6.42969C171.359 6.42969 172.653 6.94328 173.593 7.97045C174.532 8.99763 175.001 10.4063 175.001 12.1963V21.3661H171.2V13.0191C171.2 12.0268 170.988 11.2813 170.562 10.7852C170.136 10.2891 169.438 10.0398 168.463 10.0398C166.267 10.0398 165.168 11.2539 165.168 13.6822V21.3636H161.367V6.74881H165.168V8.74333C166.267 7.20256 167.78 6.42969 169.712 6.42969Z" fill="#000D20"/>
<path d="M67.2211 35.9797C67.2211 37.3409 66.0098 37.877 64.8981 37.877C63.1534 37.877 62.3882 36.9146 62.2188 35.8376H63.2332C63.4201 36.5581 63.9012 36.9321 64.8882 36.9321C65.7256 36.9321 66.2067 36.603 66.2067 36.0245C66.2067 35.4461 65.6982 35.3489 64.5417 35.0896C63.3304 34.8229 62.3882 34.4838 62.3882 33.317C62.3882 32.0804 63.4824 31.4297 64.6763 31.4297C66.2441 31.4297 66.9644 32.24 67.1413 33.2297H66.1269C65.9499 32.7137 65.5213 32.3746 64.6838 32.3746C63.8463 32.3746 63.3927 32.7486 63.3927 33.2921C63.3927 33.7383 63.7491 33.8804 64.781 34.1023C66.3562 34.4489 67.2211 34.778 67.2211 35.9822V35.9797Z" fill="#000D20"/>
<path d="M73.0903 35.3289C73.0903 36.7974 71.9761 37.8769 70.5529 37.8769C69.1297 37.8769 68.0156 36.7899 68.0156 35.3289C68.0156 33.8679 69.1547 32.7734 70.5529 32.7734C71.9512 32.7734 73.0903 33.8505 73.0903 35.3289ZM69.0301 35.3289C69.0301 36.2738 69.698 36.922 70.5529 36.922C71.4079 36.922 72.0758 36.2713 72.0758 35.3289C72.0758 34.3865 71.4004 33.7358 70.5529 33.7358C69.7055 33.7358 69.0301 34.3865 69.0301 35.3289Z" fill="#000D20"/>
<path d="M78.4289 32.8775V37.7765H77.422V36.9662C77.0755 37.5272 76.5496 37.8837 75.7919 37.8837C74.7052 37.8837 74.0547 37.1632 74.0547 35.969V32.8775H75.0616V35.7621C75.0616 36.52 75.3832 36.9189 76.1134 36.9189C76.9509 36.9189 77.422 36.3579 77.422 35.413V32.875H78.4289V32.8775Z" fill="#000D20"/>
<path d="M79.4219 35.324C79.4219 33.8631 80.5086 32.7686 81.9692 32.7686C83.1257 32.7686 84.1501 33.4716 84.3719 34.6559H83.33C83.1431 34.0426 82.5997 33.7035 81.9667 33.7035C81.0594 33.7035 80.4363 34.3791 80.4363 35.324C80.4363 36.2689 81.0769 36.9446 81.9592 36.9446C82.5997 36.9446 83.1431 36.5881 83.33 35.9822H84.3719C84.1401 37.1939 83.1082 37.8795 81.9592 37.8795C80.5086 37.8795 79.4219 36.785 79.4219 35.324ZM81.872 32.2076L80.4214 30.7466L80.9647 30.2031L81.872 31.1655L82.7792 30.2031L83.33 30.7466L81.8695 32.2076H81.872Z" fill="#000D20"/>
<path d="M85.1406 35.328C85.1406 33.8322 86.1102 32.7726 87.3938 32.7726C88.159 32.7726 88.7572 33.1565 89.1111 33.7175V32.8798H90.1181V37.7788H89.1111V36.9586C88.7472 37.5195 88.1665 37.8835 87.4013 37.8835C86.0927 37.8835 85.1406 36.8239 85.1406 35.328ZM89.1186 35.328C89.1186 34.3931 88.4681 33.7349 87.6131 33.7349C86.7582 33.7349 86.1526 34.3931 86.1526 35.328C86.1526 36.263 86.7657 36.9212 87.6131 36.9212C88.4606 36.9212 89.1186 36.2704 89.1186 35.328ZM88.7896 30.9027L87.1869 32.2116L86.7333 31.7479L88.1839 30.2969L88.7896 30.9027Z" fill="#000D20"/>
<path d="M91.0547 36.2015H92.0791C92.2311 36.745 92.6299 36.9943 93.4774 36.9943C94.1279 36.9943 94.5267 36.7974 94.5267 36.4334C94.5267 36.0245 94.0631 35.9622 93.2456 35.7652C91.8747 35.4261 91.2965 35.1519 91.2965 34.3317C91.2965 33.3444 92.1339 32.7734 93.3627 32.7734C94.5915 32.7734 95.3218 33.3693 95.4987 34.2618H94.4843C94.3422 33.8604 93.9684 33.666 93.3453 33.666C92.7221 33.666 92.3134 33.8879 92.3134 34.2269C92.3134 34.5386 92.615 34.6184 93.4699 34.8228C94.7959 35.1344 95.561 35.3663 95.561 36.3187C95.561 37.3683 94.6164 37.8769 93.4599 37.8769C92.1688 37.8769 91.2441 37.2636 91.0572 36.204L91.0547 36.2015Z" fill="#000D20"/>
<path d="M97.0244 35.8921V33.8178H96.1172V32.8729H97.0244V31.761L98.0314 31.5391V32.8754H100.043V33.8203H98.0314V35.8422C98.0314 36.5553 98.3604 36.9467 98.9935 36.9467C99.305 36.9467 99.6515 36.8395 100.035 36.7074L100.212 37.5276C99.9456 37.6872 99.3748 37.8841 98.814 37.8841C97.8071 37.8841 97.0244 37.2509 97.0244 35.8971V35.8921Z" fill="#000D20"/>
<path d="M108.58 35.9797C108.58 37.3409 107.369 37.877 106.258 37.877C104.513 37.877 103.748 36.9146 103.578 35.8376H104.593C104.779 36.5581 105.261 36.9321 106.248 36.9321C107.085 36.9321 107.566 36.603 107.566 36.0245C107.566 35.4461 107.058 35.3489 105.901 35.0896C104.69 34.8229 103.748 34.4838 103.748 33.317C103.748 32.0804 104.842 31.4297 106.036 31.4297C107.603 31.4297 108.324 32.24 108.501 33.2297H107.486C107.309 32.7137 106.881 32.3746 106.043 32.3746C105.206 32.3746 104.752 32.7486 104.752 33.2921C104.752 33.7383 105.108 33.8804 106.14 34.1023C107.716 34.4489 108.58 34.778 108.58 35.9822V35.9797Z" fill="#000D20"/>
<path d="M110.577 34.9854L112.696 32.8737H113.987L111.592 35.1973L114.184 37.7702H112.883L110.577 35.5164V37.7702H109.57V30.9141H110.577V34.9829V34.9854Z" fill="#000D20"/>
<path d="M119.249 32.8775V37.7765H118.242V36.9662C117.896 37.5272 117.37 37.8837 116.612 37.8837C115.526 37.8837 114.875 37.1632 114.875 35.969V32.8775H115.882V35.7621C115.882 36.52 116.203 36.9189 116.931 36.9189C117.769 36.9189 118.24 36.3579 118.24 35.413V32.875H119.247L119.249 32.8775Z" fill="#000D20"/>
<path d="M120.445 32.8806H121.452V33.7084C121.816 33.1474 122.397 32.7734 123.17 32.7734C124.451 32.7734 125.423 33.833 125.423 35.3289C125.423 36.8248 124.471 37.8844 123.162 37.8844C122.397 37.8844 121.819 37.5204 121.452 36.9594V40.006H120.445V32.8806ZM124.408 35.3289C124.408 34.394 123.803 33.7358 122.948 33.7358C122.093 33.7358 121.442 34.394 121.442 35.3289C121.442 36.2638 122.093 36.922 122.948 36.922C123.803 36.922 124.408 36.2713 124.408 35.3289Z" fill="#000D20"/>
<path d="M127.598 31.2774C127.598 31.6414 127.321 31.9106 126.94 31.9106C126.558 31.9106 126.289 31.6439 126.289 31.2774C126.289 30.9109 126.573 30.6641 126.94 30.6641C127.306 30.6641 127.598 30.9233 127.598 31.2774ZM126.441 32.873H127.448V37.772H126.441V32.873Z" fill="#000D20"/>
<path d="M128.612 32.8806H129.619V33.6809C129.965 33.11 130.491 32.7734 131.256 32.7734C132.361 32.7734 133.019 33.494 133.019 34.6882V37.7797H132.012V34.8951C132.012 34.1372 131.683 33.7383 130.942 33.7383C130.08 33.7383 129.616 34.2992 129.616 35.2441V37.7822H128.609V32.8831L128.612 32.8806Z" fill="#000D20"/>
<path d="M135.491 40.0004H134.414L135.705 37.1507L133.773 32.875H134.85L136.248 36.0637L137.654 32.875H138.731L135.491 40.0004Z" fill="#000D20"/>
<path d="M142.352 37.7719V31.5391H144.906C146.27 31.5391 147.097 32.3593 147.097 33.5884C147.097 34.8175 146.27 35.6627 144.906 35.6627H143.359V37.7744H142.352V37.7719ZM144.871 34.7004C145.691 34.7004 146.073 34.2292 146.073 33.5959C146.073 32.9626 145.689 32.5014 144.871 32.5014H143.359V34.7004H144.871Z" fill="#000D20"/>
<path d="M148.273 31.5391H150.846C152.199 31.5391 152.964 32.3394 152.964 33.5161C152.964 34.5483 152.386 35.209 151.396 35.396L153.258 37.7744H152.022L150.25 35.4508H149.28V37.7744H148.273V31.5416V31.5391ZM150.738 34.5583C151.566 34.5583 151.95 34.1319 151.95 33.5261C151.95 32.9203 151.558 32.5014 150.738 32.5014H149.278V34.5583H150.738Z" fill="#000D20"/>
<path d="M158.336 32.4989H155.273V34.1095H158.111V35.0718H155.273V36.8096H158.336V37.7719H154.266V31.5391H158.336V32.5014V32.4989Z" fill="#000D20"/>
</g>
<defs>
<clipPath id="clip0_10098_134919">
<rect width="175" height="40" fill="white"/>
</clipPath>
</defs>
</svg>
